<svg width="21" height="20" viewBox="0 0 21 20" fill="none" xmlns="http://www.w3.org/2000/svg">
<rect opacity="0.01" x="0.5" width="20" height="20" fill="white"/>
<path fill-rule="evenodd" clip-rule="evenodd" d="M2.16602 9.9974C2.16602 5.39502 5.89698 1.66406 10.4993 1.66406C12.7095 1.66406 14.8291 2.54204 16.3919 4.10484C17.9547 5.66764 18.8327 7.78726 18.8327 9.9974C18.8327 14.5998 15.1017 18.3307 10.4993 18.3307C5.89698 18.3307 2.16602 14.5998 2.16602 9.9974ZM3.83228 9.99577C3.83228 13.6777 6.81704 16.6624 10.4989 16.6624C12.2671 16.6624 13.9627 15.9601 15.213 14.7098C16.4632 13.4596 17.1656 11.7639 17.1656 9.99577C17.1656 6.31387 14.1808 3.3291 10.4989 3.3291C6.81704 3.3291 3.83228 6.31387 3.83228 9.99577Z" fill="white"/>
<path d="M12.7491 6.98632L9.59905 11.153L8.24072 9.39465C7.95767 9.03107 7.43347 8.96577 7.06989 9.24882C6.7063 9.53187 6.64101 10.0561 6.92405 10.4197L8.94905 13.0113C9.10807 13.2126 9.3509 13.3294 9.60739 13.328C9.8653 13.3274 10.1084 13.2074 10.2657 13.003L14.0741 8.00299C14.3548 7.6348 14.2839 7.10873 13.9157 6.82799C13.5475 6.54724 13.0215 6.61813 12.7407 6.98632H12.7491Z" fill="white"/>
</svg>
